<?xml version="1.0" encoding="UTF-8"?> <svg xmlns="http://www.w3.org/2000/svg" width="45" height="45" viewBox="0 0 45 45" fill="none"> <g clip-path="url(#clip0)"> <circle cx="29.5" cy="29.5" r="11.5" fill="#C3D6FF"></circle> <path d="M1.30715 35.4933C5.49919 43.7384 12.0989 43.937 15.0502 41.4711C16.1269 42.0422 17.3383 42.5989 18.7032 43.1321C19.3894 43.4004 20.1666 43.0595 20.4354 42.372L20.9625 41.0224C21.2553 40.2735 20.8248 39.4365 20.0455 39.2386C19.4501 39.0872 18.4776 38.8079 17.3406 38.3606C19.1642 35.7304 18.6331 32.6846 16.9321 29.9332C15.5057 27.6258 13.8223 26.1477 12.3372 24.8435C10.1475 22.9208 8.4181 21.4021 8.20058 17.9756C8.12702 16.8183 6.70114 16.3144 5.92123 17.1706C3.2332 20.1213 -2.59741 27.8135 1.30715 35.4933V35.4933ZM19.7209 40.5163C19.7333 40.5194 19.7392 40.5316 19.7346 40.5427L19.2075 41.8923C19.2036 41.9021 19.1923 41.9075 19.183 41.9043C14.8892 40.2267 9.88968 37.4126 8.4529 33.0253C10.693 36.9149 15.3521 39.4058 19.7209 40.5163V40.5163ZM6.88561 18.0696C7.14084 22.035 9.24239 23.8802 11.4674 25.8339C12.9524 27.138 14.4879 28.4864 15.8109 30.6262C18.0072 34.1789 17.0724 36.5626 16.098 37.8284C12.7482 36.2719 9.79002 33.8597 8.72202 30.3573C8.39209 29.2751 6.78736 29.4859 6.76556 30.6309V30.631C6.68207 35.0487 9.98873 38.4727 13.7902 40.7607C11.1143 42.441 5.97326 41.7618 2.48238 34.8958C-1.04498 27.9582 4.37749 20.826 6.88561 18.0696V18.0696Z" fill="#4486F4"></path> <path d="M27.1085 15.1755C25.3051 15.7862 23.4405 16.4179 21.0517 16.5305C20.688 16.5476 20.4072 16.8563 20.4243 17.22C20.4409 17.5732 20.7324 17.8481 21.0821 17.8481C21.0926 17.8481 21.1032 17.8478 21.1137 17.8473C23.6877 17.7259 25.7296 17.0342 27.5313 16.4241C30.2915 15.4893 32.4716 14.7509 35.5478 16.2758C36.5868 16.7909 37.7358 15.8078 37.3844 14.7043C36.1732 10.9008 32.4269 2.00516 23.8237 1.54683C14.6166 1.05669 11.1098 6.64833 11.7739 10.4604C10.7413 11.1073 9.65383 11.8778 8.50998 12.7929C7.93326 13.2543 7.84054 14.0958 8.30239 14.6731L9.20754 15.8045C9.7106 16.4334 10.65 16.4778 11.2109 15.9022C11.6397 15.4622 12.368 14.7596 13.3241 13.9985C13.9351 15.2901 15.2107 16.9174 17.8476 17.573C18.2003 17.6609 18.5586 17.4457 18.6464 17.0923C18.7342 16.739 18.519 16.3814 18.1657 16.2936C15.9335 15.7387 14.8911 14.3785 14.4053 13.1892C17.4027 11.0841 20.9795 9.70558 24.5641 10.5362C25.6695 10.7914 26.2778 9.29119 25.3053 8.70507C25.3053 8.70498 25.3053 8.70498 25.3053 8.70498C21.5097 6.41833 16.8791 7.586 13.0205 9.72368C12.9018 6.52749 16.1089 2.45664 23.7536 2.86321C31.5212 3.27698 34.9871 11.5306 36.1234 15.0895C32.5619 13.3285 29.913 14.2255 27.1085 15.1755V15.1755ZM22.3851 8.96864C22.3821 8.96864 22.379 8.96864 22.376 8.96864C17.8783 8.96864 13.3933 11.7737 10.2668 14.9821C10.2584 14.9906 10.2451 14.9912 10.237 14.9809L9.33181 13.8495C9.32495 13.8408 9.32601 13.8285 9.33365 13.8223C12.9475 10.9313 17.8766 8.02306 22.3851 8.96864V8.96864Z" fill="#4486F4"></path> <path d="M40.6681 22.7751C40.6242 21.5574 40.5006 20.2304 40.28 18.7822C40.169 18.0534 39.4845 17.5518 38.7556 17.6624L37.3232 17.8805C36.5281 18.0016 36.0187 18.7926 36.2369 19.5666C36.4035 20.1579 36.6478 21.1398 36.8289 22.3481C36.0301 22.282 35.0497 22.3447 34.0123 22.7466C32.3067 23.4073 30.8674 24.81 29.7347 26.9158C28.4498 29.3048 28.0113 31.5017 27.6245 33.4399C27.0542 36.2975 26.6036 38.5545 23.7449 40.4562C23.3033 40.7501 23.081 41.2757 23.1789 41.7956C23.2762 42.3129 23.6722 42.72 24.1876 42.8326C29.4952 43.9932 35.774 43.8489 39.9933 40.3402C40.2732 40.1075 40.3113 39.6919 40.0786 39.4119C39.8458 39.132 39.4302 39.0939 39.1503 39.3265C34.4964 43.1966 27.3634 42.175 24.4844 41.5476C27.7905 39.3439 28.3378 36.6013 28.9173 33.6978C29.3041 31.7598 29.704 29.7557 30.8959 27.5402C32.8745 23.8616 35.4071 23.4793 36.9895 23.6904C37.3138 27.3402 36.7183 31.1252 34.2073 33.8137C33.8694 34.1755 33.8447 34.7211 34.1486 35.111C34.4535 35.5025 34.9947 35.6081 35.4225 35.3713C35.4225 35.3713 35.4225 35.3713 35.4226 35.3712C39.2979 33.231 40.608 28.6308 40.6828 24.2228C41.7377 24.7807 42.6724 25.8616 43.1871 27.171C44.4688 30.431 43.0818 34.2983 41.0983 37.1846C40.8922 37.4848 40.9684 37.8951 41.2685 38.1012C41.5686 38.3071 41.9789 38.2311 42.1851 37.931C44.4252 34.6674 45.8678 30.3868 44.414 26.6886C43.679 24.819 42.2717 23.3625 40.6681 22.7751V22.7751ZM36.6524 32.7129C38.9199 28.7953 38.7128 23.4918 37.5058 19.209C37.5025 19.1969 37.5091 19.1857 37.5218 19.1837L38.9543 18.9656C38.9668 18.9645 38.9754 18.972 38.9769 18.9807C39.6676 23.5167 39.7307 29.2779 36.6524 32.7129V32.7129Z" fill="#4486F4"></path> </g> <defs> <clipPath id="clip0"> <rect width="45" height="45" fill="white"></rect> </clipPath> </defs> </svg> 