<?xml version="1.0" encoding="UTF-8"?> <svg xmlns="http://www.w3.org/2000/svg" width="43" height="43" viewBox="0 0 43 43" fill="none"> <g clip-path="url(#clip0)"> <circle cx="21.5" cy="29.5" r="11.5" fill="#C3D6FF"></circle> <path d="M17.8712 14.3413C15.8819 19.9413 18.809 26.0938 24.4091 28.0831C30.0092 30.0724 36.1616 27.1453 38.1509 21.5453C39.891 16.6469 37.8806 11.205 33.374 8.61438C33.622 7.92354 33.7481 7.19483 33.7465 6.46083C33.7549 2.90101 30.8759 0.00843763 27.3161 2.89795e-06C25.386 -0.00457339 23.5555 0.856128 22.3276 2.34531C22.24 2.32377 22.1575 2.29219 22.067 2.27352C21.6581 2.19205 21.2421 2.15185 20.8252 2.15364C17.2634 2.14763 14.3711 5.03007 14.3651 8.59186C14.361 11.0149 15.7152 13.2356 17.8712 14.3413ZM36.3672 22.078C36.1603 22.4959 35.9223 22.8977 35.6552 23.28C32.6999 27.4957 26.8867 28.5175 22.671 25.5623C18.4553 22.607 17.4335 16.7937 20.3887 12.5781C21.7878 10.5823 23.913 9.21379 26.3088 8.76585L26.6455 8.71416C26.8558 8.68258 27.0697 8.65961 27.2851 8.64238C27.3669 8.63592 27.4488 8.6352 27.5306 8.63089C27.6634 8.62443 27.7969 8.61725 27.9304 8.61653C28.0022 8.61653 28.074 8.61653 28.1515 8.62084C28.3458 8.62371 28.5392 8.63278 28.7316 8.64812C28.8263 8.65602 28.9218 8.66248 29.0187 8.67253C29.2556 8.69837 29.491 8.73139 29.7236 8.77518C29.8134 8.79169 29.9017 8.81466 29.9907 8.83404C30.163 8.87137 30.3352 8.91301 30.5054 8.9611C30.5937 8.98551 30.682 9.01135 30.7695 9.03863C31.0143 9.11544 31.2577 9.19799 31.4974 9.29634C31.7171 9.38248 31.936 9.48226 32.1492 9.58348C36.7643 11.8689 38.6528 17.463 36.3672 22.078ZM27.2858 1.43579C30.0597 1.43893 32.3076 3.68688 32.3108 6.46074C32.3124 6.97723 32.233 7.49077 32.0753 7.98258L32.0301 7.96464C30.7523 7.44159 29.3844 7.17455 28.0037 7.17859C27.7237 7.17859 27.4452 7.19079 27.1702 7.21233H27.1358C27.1264 7.16926 27.1107 7.12906 27.1006 7.08671C27.0798 7.002 27.0539 6.91945 27.0288 6.83546C26.9735 6.64308 26.9104 6.45428 26.8379 6.26908C26.8041 6.18222 26.7711 6.09679 26.7338 6.01209C26.6448 5.81109 26.545 5.61655 26.4373 5.42704C26.4072 5.37392 26.382 5.31864 26.3505 5.26696C26.2107 5.03796 26.0568 4.81785 25.8896 4.60797C25.8307 4.53619 25.7661 4.4644 25.7044 4.39262C25.5859 4.25551 25.4639 4.12342 25.334 3.99708C25.255 3.91955 25.1746 3.8449 25.0913 3.77168C24.9593 3.65538 24.8214 3.54699 24.68 3.44146C24.5982 3.38045 24.5192 3.31656 24.4345 3.25985C24.2225 3.11709 24.0019 2.98742 23.7741 2.87149C24.7105 1.95004 25.9721 1.43427 27.2858 1.43579ZM15.8002 8.61429C15.8034 5.84043 18.0513 3.59248 20.8252 3.58934C21.1496 3.58827 21.4734 3.62021 21.7914 3.68482C21.9908 3.72161 22.1868 3.77419 22.3779 3.84203C22.599 3.91399 22.8149 4.00103 23.0239 4.1026C23.0957 4.13634 23.1567 4.17439 23.2235 4.21315C23.3585 4.28494 23.492 4.36103 23.6183 4.44502C23.6901 4.49455 23.7619 4.54983 23.8337 4.60295C23.9442 4.6855 24.0541 4.7702 24.1574 4.86137C24.2292 4.92311 24.2924 4.98843 24.3584 5.05304C24.4542 5.14878 24.5458 5.24641 24.6334 5.34592C24.6944 5.41771 24.754 5.48949 24.8107 5.56128C24.8925 5.66752 24.9686 5.77663 25.0418 5.89077C25.0921 5.9683 25.1423 6.04511 25.1854 6.12479C25.2572 6.2461 25.316 6.37245 25.3749 6.49951C25.4122 6.57775 25.4517 6.65528 25.484 6.73568C25.5436 6.88284 25.5917 7.03502 25.6369 7.18792C25.657 7.25468 25.6821 7.31857 25.6994 7.38605C25.6994 7.39825 25.703 7.41117 25.7058 7.42266C25.6197 7.44204 25.5357 7.46789 25.4503 7.4887C25.344 7.51455 25.2349 7.54111 25.1337 7.57054C24.9751 7.61433 24.8178 7.66458 24.6614 7.71411C24.563 7.74641 24.4639 7.77656 24.3663 7.81173C24.1962 7.87347 24.0289 7.94238 23.8638 8.01202C23.7834 8.04575 23.7023 8.0759 23.6226 8.11108C23.3778 8.22091 23.1359 8.33792 22.8983 8.4657C22.6449 8.60209 22.3958 8.75284 22.1582 8.90574C22.0764 8.95886 21.9981 9.01772 21.9177 9.073C21.762 9.17996 21.6069 9.28835 21.4569 9.40249C21.3657 9.47428 21.2788 9.54606 21.1898 9.61785C21.057 9.72624 20.9257 9.8332 20.7979 9.95093C20.7082 10.032 20.622 10.116 20.5352 10.2C20.4153 10.3149 20.2983 10.4312 20.1841 10.5518C20.0999 10.6418 20.0171 10.7329 19.9358 10.8253C19.8274 10.948 19.7204 11.0744 19.6177 11.2021C19.5417 11.2976 19.4656 11.3931 19.3923 11.4893C19.2918 11.6235 19.1956 11.7606 19.1009 11.8992C19.0348 11.9975 18.9674 12.0951 18.9035 12.1956C18.8087 12.3457 18.7204 12.4993 18.6336 12.6536C18.5797 12.7484 18.5237 12.841 18.4735 12.9372C18.4591 12.9652 18.4419 12.9917 18.4275 13.019C16.8166 12.1372 15.8107 10.4508 15.8002 8.61429Z" fill="#4486F4"></path> <path d="M25.2299 11.2912C25.2299 11.2911 25.2299 11.2911 25.2299 11.2912C25.0422 10.942 24.607 10.8111 24.2578 10.9988C24.2576 10.9989 24.2574 10.999 24.2572 10.9991C22.6918 11.8455 21.4573 13.195 20.7534 14.8295C20.3265 15.8132 20.1066 16.8741 20.1073 17.9464C20.1079 18.3429 20.4297 18.6638 20.8262 18.6633C21.2219 18.6627 21.5425 18.3421 21.543 17.9464C21.5416 17.0697 21.7202 16.2021 22.0678 15.3973C22.6448 14.0594 23.6565 12.9553 24.9392 12.2639C25.2881 12.0756 25.4183 11.6401 25.2299 11.2912Z" fill="#4486F4"></path> <path d="M21.8409 19.8845C21.7111 19.51 21.3021 19.3116 20.9275 19.4414C20.5682 19.5661 20.3684 19.9492 20.472 20.3152C20.6524 20.8851 20.8973 21.4326 21.202 21.9469C21.4042 22.2881 21.8447 22.4007 22.1859 22.1985C22.527 21.9963 22.6396 21.5559 22.4375 21.2147C22.1886 20.7955 21.9884 20.3492 21.8409 19.8845Z" fill="#4486F4"></path> <path d="M17.9538 9.33214C18.3502 9.33214 18.6716 9.01072 18.6716 8.61429C18.6716 7.4249 19.6358 6.46074 20.8252 6.46074C21.2216 6.46074 21.543 6.13932 21.543 5.74289C21.543 5.34646 21.2216 5.02504 20.8252 5.02504C18.8439 5.02737 17.2383 6.63302 17.2359 8.61429C17.2359 9.01081 17.5573 9.33214 17.9538 9.33214Z" fill="#4486F4"></path> <path d="M27.2858 4.30719C28.4752 4.30719 29.4394 5.27135 29.4394 6.46074C29.4394 6.85717 29.7608 7.17859 30.1572 7.17859C30.5536 7.17859 30.8751 6.85717 30.8751 6.46074C30.8727 4.47947 29.2671 2.87382 27.2858 2.87149C26.8894 2.87149 26.568 3.19291 26.568 3.58934C26.568 3.98577 26.8894 4.30719 27.2858 4.30719Z" fill="#4486F4"></path> <path d="M42.6083 29.3601C41.8086 27.9952 40.0602 27.5268 38.6853 28.3092L31.145 32.6623C30.9985 31.4722 30.1378 30.4936 28.9764 30.1964L22.22 29.0012C21.2535 28.7809 20.3223 28.4272 19.4534 27.9503C17.6612 27.0177 15.667 26.5403 13.6467 26.5605C11.6608 26.5322 9.69851 26.9927 7.9326 27.9015C7.67453 28.0289 7.4057 28.1333 7.12932 28.2137C5.99539 28.5561 4.81641 28.7255 3.63196 28.7162H0.725387C0.328955 28.7162 0.00753784 29.0376 0.00753784 29.4341V39.4818C0.00753784 39.8783 0.328955 40.1997 0.725387 40.1997H5.09494C5.49478 40.1997 5.89408 40.2299 6.28944 40.2901L23.7741 42.967C24.2752 43.0553 24.7913 42.9651 25.2328 42.7121L41.5567 33.2868C42.4497 32.7778 42.9986 31.8266 42.9924 30.7987C42.9924 30.2939 42.8599 29.7979 42.6083 29.3601ZM40.8388 32.0406L24.5113 41.4681C24.3584 41.553 24.1809 41.5823 24.0088 41.5507L6.50695 38.8709C6.03963 38.7999 5.56764 38.7642 5.09494 38.764H1.44324V30.1498H3.63196C4.96115 30.16 6.28424 29.9693 7.55644 29.5841C7.9195 29.4781 8.27178 29.3385 8.60881 29.167C10.1691 28.376 11.8976 27.9742 13.6467 27.9962C15.4257 27.9746 17.1827 28.3902 18.7635 29.2065C19.7591 29.7524 20.8264 30.1554 21.9343 30.4039L28.6641 31.597C29.4301 31.8017 29.8852 32.5887 29.6804 33.3547C29.6799 33.3562 29.6796 33.3578 29.6791 33.3593C29.6472 33.4781 29.5989 33.5919 29.5356 33.6974V33.7031H29.532C29.1964 34.2503 28.5468 34.5194 27.9226 34.37C27.896 34.3628 18.7743 33.0255 18.7743 33.0255C18.3839 32.9566 18.0115 33.2172 17.9426 33.6076C17.8736 33.998 18.1342 34.3704 18.5246 34.4393C18.5384 34.4417 18.5523 34.4438 18.5661 34.4454C18.5661 34.4454 28.0489 35.8517 28.2865 35.8524H28.2966C29.2429 35.8521 30.1279 35.3834 30.6597 34.6004L39.4003 29.5525C40.086 29.1545 40.9646 29.3877 41.3627 30.0735C41.49 30.2929 41.5569 30.5422 41.5567 30.7958C41.5601 31.3101 41.2856 31.786 40.8388 32.0406Z" fill="#4486F4"></path> <path d="M26.455 24V21.96H25.15V20.985H26.455V19.65H25.15V18.51H26.455V13.29H29.275C30.585 13.29 31.555 13.555 32.185 14.085C32.825 14.615 33.145 15.385 33.145 16.395C33.145 17.415 32.8 18.215 32.11 18.795C31.42 19.365 30.405 19.65 29.065 19.65H27.805V20.985H30.28V21.96H27.805V24H26.455ZM28.87 18.51C29.78 18.51 30.485 18.36 30.985 18.06C31.495 17.76 31.75 17.22 31.75 16.44C31.75 15.76 31.54 15.255 31.12 14.925C30.7 14.595 30.045 14.43 29.155 14.43H27.805V18.51H28.87Z" fill="#4486F4"></path> </g> <defs> <clipPath id="clip0"> <rect width="43" height="43" fill="white"></rect> </clipPath> </defs> </svg> 