<?xml version="1.0" encoding="UTF-8"?> <svg xmlns="http://www.w3.org/2000/svg" width="43" height="43" viewBox="0 0 43 43" fill="none"> <circle cx="31.5" cy="29.5" r="11.5" fill="#C3D6FF"></circle> <path d="M21.5 43C33.3552 43 43 33.3552 43 21.5C43 9.64483 33.3552 0 21.5 0C9.64483 0 0 9.64483 0 21.5C0 33.3552 9.64483 43 21.5 43ZM21.5 1.9172C32.2981 1.9172 41.0828 10.7019 41.0828 21.5C41.0828 32.2981 32.2981 41.0828 21.5 41.0828C10.7019 41.0828 1.9172 32.2981 1.9172 21.5C1.9172 10.7019 10.7019 1.9172 21.5 1.9172Z" fill="#4486F4"></path> <path d="M16.2004 19.5678C18.3931 19.5678 20.1702 17.7902 20.1702 15.5981C20.1707 13.4054 18.3931 11.6278 16.2004 11.6278C14.0077 11.6278 12.2307 13.4054 12.2307 15.5976C12.2328 17.7892 14.0088 19.5652 16.2004 19.5678ZM16.2004 13.545C17.3339 13.545 18.253 14.464 18.253 15.5976C18.2535 16.7316 17.3345 17.6506 16.2004 17.6506C15.0669 17.6506 14.1479 16.7316 14.1479 15.5976C14.149 14.4646 15.0674 13.5466 16.2004 13.545Z" fill="#4486F4"></path> <path d="M22.5891 27.6432C22.5891 29.8358 24.3667 31.6129 26.5589 31.6129C28.7515 31.6129 30.5291 29.8358 30.5291 27.6432C30.5291 25.4505 28.7515 23.6729 26.5589 23.6729C24.3672 23.6756 22.5918 25.4515 22.5891 27.6432ZM28.6119 27.6432C28.6119 28.7767 27.6929 29.6957 26.5589 29.6957C25.4253 29.6957 24.5063 28.7767 24.5063 27.6432C24.5063 26.5096 25.4253 25.5906 26.5589 25.5901C27.6924 25.5917 28.6103 26.5096 28.6119 27.6432Z" fill="#4486F4"></path> <path d="M14.2008 32.6919C14.6443 32.9813 15.2386 32.8561 15.5275 32.4126L29.0784 11.6348C29.2661 11.3475 29.2865 10.9822 29.1319 10.6762C28.9767 10.3702 28.6702 10.1701 28.3279 10.1519C27.9855 10.1338 27.6592 10.2996 27.4725 10.5874L13.9216 31.3652C13.6322 31.8092 13.7574 32.403 14.2008 32.6919Z" fill="#4486F4"></path> </svg> 