<svg width="93" height="121" viewBox="0 0 93 121" fill="none" xmlns="http://www.w3.org/2000/svg">
<rect x="3.14737" y="0.5" width="41" height="41" fill="#008F97"/>
<rect x="3.64738" y="43" width="41" height="41" fill="#F48922"/>
<rect x="46.1474" y="12" width="41" height="41" fill="#F48922"/>
<rect x="46.1474" y="54.5" width="41" height="41" fill="#008F97"/>
<path d="M15.6474 32.25C15.5307 32.25 15.4224 32.2 15.3224 32.1C15.2057 32 15.1474 31.8583 15.1474 31.675C15.1474 31.5417 15.189 31.375 15.2724 31.175C15.3557 30.975 15.5057 30.7583 15.7224 30.525C16.1057 29.675 16.464 28.9833 16.7974 28.45C17.1474 27.9167 17.539 27.3417 17.9724 26.725C17.7557 26.6917 17.5974 26.6167 17.4974 26.5C17.3974 26.3667 17.3474 26.2167 17.3474 26.05C17.3474 25.7833 17.4224 25.5333 17.5724 25.3C17.739 25.05 17.889 24.925 18.0224 24.925C18.2224 24.925 18.4307 24.9 18.6474 24.85C18.8807 24.8 19.114 24.775 19.3474 24.775C19.9474 23.9083 20.4307 23.1917 20.7974 22.625C21.1807 22.0583 21.489 21.6 21.7224 21.25C21.9557 20.9 22.1557 20.6083 22.3224 20.375C22.5057 20.1417 22.689 19.925 22.8724 19.725C23.0557 19.5083 23.2807 19.2583 23.5474 18.975C23.814 18.6917 24.164 18.3333 24.5974 17.9C24.3807 17.45 24.2724 17.0083 24.2724 16.575C24.2724 15.975 24.4474 15.4833 24.7974 15.1C25.1474 14.7167 25.514 14.525 25.8974 14.525C26.0974 14.525 26.2807 14.5833 26.4474 14.7C26.6307 14.8 26.7807 14.9833 26.8974 15.25C27.364 16.3167 27.689 17.675 27.8724 19.325C28.0724 20.975 28.2057 22.725 28.2724 24.575C29.5224 24.675 30.389 24.9 30.8724 25.25C30.6557 25.3167 30.3224 25.3917 29.8724 25.475C29.4224 25.5417 28.889 25.6167 28.2724 25.7C28.2724 26.3667 28.2807 27.0417 28.2974 27.725C28.314 28.4083 28.3224 29.0833 28.3224 29.75C28.3224 30.6833 28.2474 31.3333 28.0974 31.7C27.964 32.0667 27.8307 32.25 27.6974 32.25C27.514 32.25 27.4224 32.0833 27.4224 31.75C27.4224 30.6333 27.3724 29.5917 27.2724 28.625C27.1724 27.6417 27.0307 26.725 26.8474 25.875C26.0307 25.9583 25.164 26.05 24.2474 26.15C23.3474 26.2333 22.4474 26.3167 21.5474 26.4C20.6474 26.4833 19.814 26.5667 19.0474 26.65C18.514 27.4833 17.9807 28.3583 17.4474 29.275C16.9307 30.1917 16.4307 31.125 15.9474 32.075C15.8974 32.1917 15.7974 32.25 15.6474 32.25ZM20.3974 24.675C21.3807 24.5917 22.414 24.5417 23.4974 24.525C24.5807 24.4917 25.6057 24.475 26.5724 24.475C26.289 23.2917 25.9807 22.25 25.6474 21.35C25.3307 20.4333 25.0807 19.65 24.8974 19C24.464 19.4333 23.839 20.1417 23.0224 21.125C22.2224 22.1083 21.3474 23.2917 20.3974 24.675Z" fill="white"/>
<path d="M65.0474 78C64.7307 78 64.4724 77.9833 64.2724 77.95C64.089 77.9167 63.9474 77.8833 63.8474 77.85C63.564 77.75 63.4224 77.6666 63.4224 77.6C63.4224 77.45 64.2724 77.375 65.9724 77.375C66.889 77.375 67.764 77.225 68.5974 76.925C69.4307 76.625 70.189 76.2416 70.8724 75.775C71.5724 75.2916 72.164 74.7833 72.6474 74.25C73.1307 73.7 73.4724 73.1833 73.6724 72.7C73.789 72.4 73.8474 72.15 73.8474 71.95C73.8474 71.3833 73.5974 70.8833 73.0974 70.45C72.614 70 71.9557 69.6416 71.1224 69.375C70.289 69.1083 69.339 68.975 68.2724 68.975C67.3557 68.975 66.3724 69.1 65.3224 69.35C64.289 69.5833 63.2557 69.975 62.2224 70.525C62.1057 70.5916 61.9557 70.6416 61.7724 70.675C61.589 70.6916 61.3974 70.7 61.1974 70.7C60.9474 70.7 60.714 70.675 60.4974 70.625C60.2974 70.575 60.1974 70.5 60.1974 70.4C60.1974 70.2666 60.3557 70.1166 60.6724 69.95C61.789 69.35 62.9557 68.9166 64.1724 68.65C65.389 68.3833 66.5807 68.25 67.7474 68.25C68.8807 68.25 69.9557 68.3583 70.9724 68.575C71.989 68.7916 72.889 69.0916 73.6724 69.475C74.4557 69.8416 75.064 70.275 75.4974 70.775C75.9474 71.2583 76.1724 71.775 76.1724 72.325C76.1724 72.625 76.0974 72.925 75.9474 73.225C75.6474 73.8583 75.0974 74.475 74.2974 75.075C73.4974 75.6583 72.539 76.175 71.4224 76.625C70.3057 77.075 69.1224 77.425 67.8724 77.675C67.239 77.7916 66.689 77.875 66.2224 77.925C65.7724 77.975 65.3807 78 65.0474 78ZM60.0474 84.55C59.914 84.55 59.7557 84.4333 59.5724 84.2C59.389 83.9833 59.2307 83.55 59.0974 82.9C59.0807 82.8 59.064 82.7 59.0474 82.6C59.0474 82.4833 59.0474 82.3667 59.0474 82.25C59.0474 81.6833 59.1224 81.0167 59.2724 80.25C59.439 79.4667 59.6557 78.65 59.9224 77.8C60.189 76.9333 60.4807 76.0833 60.7974 75.25C61.114 74.4166 61.439 73.65 61.7724 72.95C62.1057 72.25 62.414 71.6833 62.6974 71.25C62.9307 70.8666 63.264 70.6083 63.6974 70.475C64.1474 70.325 64.5724 70.25 64.9724 70.25C65.3557 70.25 65.6724 70.3 65.9224 70.4C66.1724 70.5 66.239 70.6166 66.1224 70.75C65.5724 71.4333 65.0057 72.25 64.4224 73.2C63.839 74.1333 63.289 75.1333 62.7724 76.2C62.2557 77.25 61.7974 78.2917 61.3974 79.325C60.9974 80.3583 60.6974 81.3083 60.4974 82.175C60.2974 83.0417 60.2307 83.7583 60.2974 84.325C60.2974 84.475 60.214 84.55 60.0474 84.55Z" fill="white"/>
<path d="M0.755859 115.073C0.723307 114.976 0.707031 114.919 0.707031 114.902C0.707031 114.528 0.755859 114.341 0.853516 114.341C0.983724 114.341 1.1709 114.308 1.41504 114.243C1.65918 114.162 1.89518 114.064 2.12305 113.95C2.36719 113.82 2.52995 113.698 2.61133 113.584C2.72526 113.454 2.87988 113.234 3.0752 112.925C3.28678 112.599 3.53906 112.184 3.83203 111.68L10.5947 100.107C11.1156 99.2285 11.5387 98.7891 11.8643 98.7891C11.9619 98.7891 12.0433 98.8216 12.1084 98.8867L14.4033 111.68L14.7451 113.462C14.7777 113.625 14.8753 113.771 15.0381 113.901C15.2171 114.032 15.4043 114.137 15.5996 114.219C15.8112 114.3 15.9658 114.341 16.0635 114.341C16.096 114.341 16.1123 114.39 16.1123 114.487C16.1123 114.764 16.0798 114.959 16.0147 115.073L13.2314 114.927C13.0524 114.927 12.0352 114.976 10.1797 115.073C10.1634 115.057 10.1553 115.008 10.1553 114.927C10.1553 114.536 10.2041 114.341 10.3018 114.341C10.4645 114.341 10.7087 114.284 11.0342 114.17C11.3597 114.04 11.5632 113.91 11.6445 113.779C11.7422 113.584 11.791 113.34 11.791 113.047C11.791 112.965 11.7503 112.64 11.6689 112.07C11.5876 111.484 11.4655 110.646 11.3027 109.556C11.3027 109.474 11.262 109.434 11.1807 109.434C10.8877 109.385 10.1227 109.36 8.88574 109.36C8.28353 109.36 7.51856 109.385 6.59082 109.434C6.50944 109.434 6.46061 109.466 6.44434 109.531C6.42806 109.564 6.30599 109.751 6.07813 110.093C5.86654 110.435 5.6224 110.841 5.3457 111.313C5.06901 111.769 4.82487 112.209 4.61328 112.632C4.40169 113.039 4.2959 113.34 4.2959 113.535C4.2959 113.698 4.38542 113.844 4.56445 113.975C4.75977 114.089 4.97136 114.178 5.19922 114.243C5.44336 114.308 5.63053 114.341 5.76074 114.341C5.7933 114.341 5.80957 114.382 5.80957 114.463C5.80957 114.674 5.76074 114.878 5.66309 115.073C5.48405 115.057 5.15853 115.033 4.68652 115C4.2308 114.951 3.80762 114.927 3.41699 114.927C3.15658 114.927 2.83919 114.943 2.46484 114.976C2.10677 114.992 1.76497 115.008 1.43945 115.024C1.13021 115.041 0.902344 115.057 0.755859 115.073ZM9.17871 108.042C9.65072 108.042 10.2367 108.018 10.9365 107.969C11.0016 107.969 11.0342 107.936 11.0342 107.871L10.6191 105.356C10.5052 104.689 10.4157 104.16 10.3506 103.77C10.2855 103.363 10.2448 103.102 10.2285 102.988L7.39649 107.969C7.88477 108.018 8.47884 108.042 9.17871 108.042ZM20.7022 120.566C20.637 120.55 20.6045 120.485 20.6045 120.371C20.6045 120.062 20.6452 119.867 20.7266 119.785C20.987 119.785 21.2555 119.761 21.5322 119.712C21.8089 119.663 22.0124 119.557 22.1426 119.395C22.2728 119.248 22.3867 118.874 22.4844 118.271L23.5586 112.534C23.3633 112.876 23.111 113.25 22.8018 113.657C22.5088 114.064 22.167 114.414 21.7764 114.707C21.402 115 20.9788 115.146 20.5068 115.146C19.6768 115.146 19.0339 114.821 18.5781 114.17C18.1224 113.519 17.8945 112.697 17.8945 111.704C17.8945 110.776 18.098 109.865 18.5049 108.97C18.9118 108.075 19.4652 107.269 20.165 106.553C20.8649 105.837 21.6462 105.267 22.5088 104.844C23.3714 104.421 24.2585 104.209 25.1699 104.209C26.0163 104.209 26.7324 104.355 27.3184 104.648L24.7061 118.174C24.6735 118.337 24.6491 118.475 24.6328 118.589C24.6328 118.703 24.6328 118.809 24.6328 118.906C24.6328 119.215 24.7223 119.403 24.9014 119.468C25.0804 119.549 25.3164 119.59 25.6094 119.59C25.6745 119.59 25.707 119.663 25.707 119.81C25.707 120.054 25.6745 120.233 25.6094 120.347H24.291C23.7865 120.347 23.2087 120.363 22.5576 120.396C21.9066 120.444 21.2881 120.501 20.7022 120.566ZM21.2637 113.511C21.5404 113.511 21.8333 113.356 22.1426 113.047C22.4518 112.738 22.7529 112.339 23.0459 111.851C23.3389 111.362 23.5993 110.841 23.8272 110.288C24.0713 109.718 24.2422 109.173 24.3398 108.652L24.9014 105.82C24.7712 105.641 24.4538 105.552 23.9492 105.552C23.5098 105.552 23.0703 105.723 22.6309 106.064C22.1914 106.406 21.7926 106.87 21.4346 107.456C21.0928 108.026 20.8161 108.66 20.6045 109.36C20.3929 110.06 20.2871 110.768 20.2871 111.484C20.2871 112.835 20.6126 113.511 21.2637 113.511ZM30.6875 115.171C29.5807 115.171 29.0273 114.463 29.0273 113.047C29.0273 112.738 29.0599 112.363 29.125 111.924C29.1901 111.484 29.2796 110.98 29.3936 110.41L29.9795 107.432C30.0121 107.285 30.0365 107.147 30.0527 107.017C30.069 106.886 30.0772 106.764 30.0772 106.65C30.0772 106.26 29.9958 106.064 29.833 106.064C29.7028 106.064 29.5319 106.138 29.3203 106.284C29.125 106.431 28.9297 106.602 28.7344 106.797C28.5391 106.992 28.3844 107.155 28.2705 107.285C28.238 107.285 28.1647 107.204 28.0508 107.041C27.9369 106.878 27.8799 106.764 27.8799 106.699C27.9775 106.504 28.1566 106.268 28.417 105.991C28.6937 105.715 29.0111 105.446 29.3691 105.186C29.7272 104.909 30.0853 104.681 30.4434 104.502C30.8177 104.307 31.1432 104.209 31.4199 104.209C31.7292 104.209 31.9815 104.331 32.1768 104.575C32.3721 104.803 32.4697 105.12 32.4697 105.527C32.4697 105.967 32.4046 106.488 32.2744 107.09L31.5664 110.557C31.5013 110.915 31.4525 111.208 31.4199 111.436C31.3874 111.647 31.3711 111.81 31.3711 111.924C31.3711 112.607 31.5664 112.949 31.957 112.949C32.2012 112.949 32.4941 112.754 32.8359 112.363C33.194 111.956 33.5602 111.436 33.9346 110.801C34.3252 110.166 34.667 109.482 34.96 108.75C35.2692 108.001 35.4971 107.285 35.6436 106.602L36.1074 104.38C36.4004 104.299 36.7585 104.258 37.1816 104.258C37.5723 104.258 37.9466 104.299 38.3047 104.38L36.8154 112.144C36.7992 112.225 36.7829 112.314 36.7666 112.412C36.7666 112.51 36.7666 112.616 36.7666 112.729C36.7666 113.136 36.848 113.34 37.0108 113.34C37.2549 113.34 37.5316 113.185 37.8408 112.876C38.1501 112.567 38.4349 112.282 38.6953 112.021C38.7279 112.021 38.8011 112.103 38.915 112.266C39.029 112.412 39.0859 112.518 39.0859 112.583C38.9883 112.778 38.8011 113.022 38.5244 113.315C38.2477 113.608 37.9222 113.893 37.5479 114.17C37.1898 114.447 36.8154 114.683 36.4248 114.878C36.0505 115.073 35.7168 115.171 35.4238 115.171C35.1146 115.171 34.8623 115.057 34.667 114.829C34.4717 114.585 34.374 114.251 34.374 113.828C34.374 113.698 34.3822 113.519 34.3984 113.291C34.431 113.047 34.4798 112.754 34.5449 112.412C34.6751 111.94 34.7484 111.582 34.7647 111.338C34.7972 111.094 34.8135 110.972 34.8135 110.972C34.6344 111.33 34.374 111.753 34.0322 112.241C33.7067 112.713 33.3405 113.177 32.9336 113.633C32.5267 114.072 32.1279 114.438 31.7373 114.731C31.3467 115.024 30.9968 115.171 30.6875 115.171ZM46.3858 115.171C46.0765 115.171 45.8161 115.057 45.6045 114.829C45.4092 114.585 45.3115 114.268 45.3115 113.877C45.3115 113.747 45.3359 113.527 45.3848 113.218C45.4499 112.892 45.4906 112.673 45.5068 112.559C45.2953 112.9 45.043 113.275 44.75 113.682C44.457 114.089 44.1234 114.438 43.749 114.731C43.3747 115.008 42.9352 115.146 42.4307 115.146C41.6331 115.146 40.9984 114.821 40.5264 114.17C40.0706 113.519 39.8428 112.697 39.8428 111.704C39.8428 110.793 40.0462 109.897 40.4531 109.019C40.8763 108.123 41.4378 107.318 42.1377 106.602C42.8376 105.869 43.6188 105.291 44.4815 104.868C45.3604 104.429 46.2637 104.209 47.1914 104.209C47.9889 104.209 48.6644 104.355 49.2178 104.648L47.8994 111.533C47.8343 111.908 47.7855 112.176 47.7529 112.339C47.7204 112.502 47.7041 112.681 47.7041 112.876C47.7041 113.185 47.7855 113.34 47.9483 113.34C48.2087 113.34 48.4935 113.185 48.8027 112.876C49.112 112.567 49.3968 112.282 49.6572 112.021C49.6898 112.021 49.763 112.103 49.877 112.266C49.9909 112.412 50.0479 112.518 50.0479 112.583C49.9502 112.778 49.763 113.022 49.4863 113.315C49.2096 113.608 48.8841 113.893 48.5098 114.17C48.1517 114.447 47.7774 114.683 47.3867 114.878C47.0124 115.073 46.6787 115.171 46.3858 115.171ZM43.2608 113.535C43.5374 113.535 43.8304 113.381 44.1397 113.071C44.4489 112.746 44.7419 112.323 45.0186 111.802C45.3115 111.265 45.5719 110.679 45.7998 110.044C46.044 109.409 46.223 108.774 46.3369 108.14L46.8008 105.796C46.6543 105.633 46.3776 105.552 45.9707 105.552C45.515 105.552 45.0593 105.747 44.6035 106.138C44.1641 106.528 43.7653 107.041 43.4072 107.676C43.0654 108.294 42.7887 108.953 42.5772 109.653C42.3656 110.353 42.2598 111.012 42.2598 111.631C42.2598 112.9 42.5934 113.535 43.2608 113.535ZM53.5147 115.073C53.4821 114.976 53.4658 114.886 53.4658 114.805C53.4658 114.723 53.4902 114.626 53.5391 114.512C53.5716 114.398 53.6042 114.341 53.6367 114.341C53.8646 114.341 54.1494 114.3 54.4912 114.219C54.8493 114.121 55.069 113.975 55.1504 113.779C55.2969 113.486 55.4922 112.77 55.7363 111.631L57.6651 101.865C57.7302 101.589 57.7708 101.32 57.7871 101.06C57.8197 100.799 57.8359 100.563 57.8359 100.352C57.8359 100.205 57.7546 100.075 57.5918 99.9609C57.429 99.847 57.25 99.7575 57.0547 99.6924C56.8594 99.611 56.7048 99.5703 56.5908 99.5703C56.5583 99.5703 56.542 99.5215 56.542 99.4238C56.542 99.1309 56.6071 98.9355 56.7373 98.8379L59.5449 98.96C59.9844 98.96 60.5215 98.9355 61.1563 98.8867C61.4818 98.8704 61.7748 98.8623 62.0352 98.8623C62.3119 98.846 62.556 98.8379 62.7676 98.8379C63.3698 98.8379 63.9883 98.9518 64.6231 99.1797C65.2416 99.4075 65.7949 99.8226 66.2832 100.425C66.7878 101.027 67.0401 101.759 67.0401 102.622C67.0401 103.55 66.7878 104.421 66.2832 105.234C65.7787 106.048 65.1032 106.707 64.2568 107.212C63.4268 107.716 62.499 107.969 61.4736 107.969C60.7087 107.969 60.1634 107.847 59.8379 107.603C59.8054 107.505 59.7891 107.432 59.7891 107.383C59.7891 107.171 59.8542 107.025 59.9844 106.943C60.1471 106.96 60.2855 106.976 60.3994 106.992C60.5134 106.992 60.6029 106.992 60.668 106.992C61.3516 106.992 61.9619 106.797 62.499 106.406C63.0524 106.016 63.4837 105.47 63.793 104.771C64.1185 104.071 64.2813 103.265 64.2813 102.354C64.2813 101.621 64.0941 101.043 63.7197 100.62C63.3454 100.181 62.8327 99.9609 62.1817 99.9609C61.1074 99.9609 60.5459 100.14 60.4971 100.498L58.2998 111.729C58.1533 112.51 58.0801 113.096 58.0801 113.486C58.0801 113.682 58.1777 113.844 58.3731 113.975C58.5684 114.105 58.8044 114.202 59.0811 114.268C59.374 114.316 59.6426 114.341 59.8867 114.341C59.9193 114.341 59.9356 114.438 59.9356 114.634C59.9356 114.829 59.8867 114.976 59.7891 115.073C57.9824 114.976 56.9652 114.927 56.7373 114.927C56.1677 114.927 55.5817 114.943 54.9795 114.976C54.3773 115.008 53.889 115.041 53.5147 115.073ZM68.1631 115.171C67.8539 115.171 67.6016 115.057 67.4063 114.829C67.211 114.585 67.1133 114.251 67.1133 113.828C67.1133 113.649 67.1296 113.429 67.1621 113.169C67.1947 112.909 67.2435 112.616 67.3086 112.29L69.457 101.23C69.5547 100.71 69.6035 100.352 69.6035 100.156C69.6035 99.8307 69.1559 99.668 68.2608 99.668C68.2119 99.668 68.1875 99.611 68.1875 99.4971C68.1875 99.2855 68.2526 99.1146 68.3828 98.9844C68.7246 98.9518 69.1234 98.8949 69.5791 98.8135C70.0348 98.7158 70.4824 98.61 70.9219 98.4961C71.3613 98.3659 71.7113 98.2519 71.9717 98.1543C72.1019 98.2357 72.167 98.3984 72.167 98.6426C72.167 98.7728 72.0449 99.4401 71.8008 100.645L69.5547 112.144C69.5384 112.225 69.5222 112.314 69.5059 112.412C69.5059 112.51 69.5059 112.616 69.5059 112.729C69.5059 113.136 69.5873 113.34 69.75 113.34C69.9942 113.34 70.2708 113.185 70.5801 112.876C70.8893 112.567 71.1742 112.282 71.4346 112.021C71.4671 112.021 71.5404 112.103 71.6543 112.266C71.7682 112.412 71.8252 112.518 71.8252 112.583C71.7276 112.778 71.5404 113.022 71.2637 113.315C70.987 113.608 70.6615 113.893 70.2871 114.17C69.9291 114.447 69.5547 114.683 69.1641 114.878C68.7897 115.073 68.4561 115.171 68.1631 115.171ZM75.5361 115.171C74.4294 115.171 73.876 114.463 73.876 113.047C73.876 112.738 73.9085 112.363 73.9736 111.924C74.0388 111.484 74.1283 110.98 74.2422 110.41L74.8281 107.432C74.8607 107.285 74.8851 107.147 74.9014 107.017C74.9177 106.886 74.9258 106.764 74.9258 106.65C74.9258 106.26 74.8444 106.064 74.6817 106.064C74.5514 106.064 74.3805 106.138 74.169 106.284C73.9736 106.431 73.7783 106.602 73.583 106.797C73.3877 106.992 73.2331 107.155 73.1192 107.285C73.0866 107.285 73.0134 107.204 72.8994 107.041C72.7855 106.878 72.7285 106.764 72.7285 106.699C72.8262 106.504 73.0052 106.268 73.2656 105.991C73.5423 105.715 73.8597 105.446 74.2178 105.186C74.5759 104.909 74.9339 104.681 75.292 104.502C75.6664 104.307 75.9919 104.209 76.2686 104.209C76.5778 104.209 76.8301 104.331 77.0254 104.575C77.2207 104.803 77.3184 105.12 77.3184 105.527C77.3184 105.967 77.2533 106.488 77.1231 107.09L76.4151 110.557C76.35 110.915 76.3011 111.208 76.2686 111.436C76.236 111.647 76.2197 111.81 76.2197 111.924C76.2197 112.607 76.4151 112.949 76.8057 112.949C77.0498 112.949 77.3428 112.754 77.6846 112.363C78.0427 111.956 78.4089 111.436 78.7832 110.801C79.1738 110.166 79.5156 109.482 79.8086 108.75C80.1179 108.001 80.3457 107.285 80.4922 106.602L80.9561 104.38C81.249 104.299 81.6071 104.258 82.0303 104.258C82.4209 104.258 82.7953 104.299 83.1533 104.38L81.6641 112.144C81.6478 112.225 81.6315 112.314 81.6153 112.412C81.6153 112.51 81.6153 112.616 81.6153 112.729C81.6153 113.136 81.6966 113.34 81.8594 113.34C82.1035 113.34 82.3802 113.185 82.6895 112.876C82.9987 112.567 83.2835 112.282 83.544 112.021C83.5765 112.021 83.6498 112.103 83.7637 112.266C83.8776 112.412 83.9346 112.518 83.9346 112.583C83.8369 112.778 83.6498 113.022 83.3731 113.315C83.0964 113.608 82.7709 113.893 82.3965 114.17C82.0384 114.447 81.6641 114.683 81.2735 114.878C80.8991 115.073 80.5654 115.171 80.2725 115.171C79.9632 115.171 79.711 115.057 79.5156 114.829C79.3203 114.585 79.2227 114.251 79.2227 113.828C79.2227 113.698 79.2308 113.519 79.2471 113.291C79.2796 113.047 79.3285 112.754 79.3936 112.412C79.5238 111.94 79.597 111.582 79.6133 111.338C79.6459 111.094 79.6621 110.972 79.6621 110.972C79.4831 111.33 79.2227 111.753 78.8809 112.241C78.5554 112.713 78.1891 113.177 77.7822 113.633C77.3753 114.072 76.9766 114.438 76.586 114.731C76.1953 115.024 75.8454 115.171 75.5361 115.171ZM87.1328 115.171C86.1563 115.171 85.3832 114.886 84.8135 114.316C84.6996 114.154 84.6426 113.942 84.6426 113.682C84.6426 113.307 84.724 112.998 84.8867 112.754C85.0658 112.493 85.2855 112.363 85.5459 112.363C85.7738 112.363 85.9772 112.453 86.1563 112.632C86.3516 112.811 86.5062 112.998 86.6201 113.193C86.7341 113.405 86.8968 113.6 87.1084 113.779C87.3363 113.942 87.5886 114.023 87.8653 114.023C88.1908 114.023 88.4431 113.926 88.6221 113.73C88.8011 113.535 88.8906 113.275 88.8906 112.949C88.8906 112.477 88.6384 111.916 88.1338 111.265C87.8083 110.825 87.4665 110.369 87.1084 109.897C86.7503 109.425 86.4492 108.962 86.2051 108.506C85.9772 108.034 85.8633 107.603 85.8633 107.212C85.8633 106.691 86.0342 106.203 86.376 105.747C86.7178 105.275 87.1735 104.893 87.7432 104.6C88.3128 104.307 88.9395 104.16 89.6231 104.16C90.5996 104.16 91.3646 104.437 91.918 104.99C92.0482 105.202 92.1133 105.438 92.1133 105.698C92.1133 106.073 92.0238 106.382 91.8448 106.626C91.682 106.854 91.4623 106.968 91.1856 106.968C90.8438 106.968 90.4938 106.691 90.1358 106.138C89.7777 105.584 89.3627 105.308 88.8906 105.308C88.2396 105.308 87.9141 105.674 87.9141 106.406C87.9141 106.764 88.0687 107.196 88.378 107.7C88.6872 108.188 89.0371 108.644 89.4278 109.067C89.8021 109.507 90.1439 110.011 90.4531 110.581C90.7787 111.134 90.9414 111.647 90.9414 112.119C90.9414 112.705 90.7705 113.234 90.4287 113.706C90.1032 114.162 89.6475 114.52 89.0615 114.78C88.4919 115.041 87.849 115.171 87.1328 115.171Z" fill="white"/>
</svg>
