<svg width="85" height="96" viewBox="0 0 85 96" fill="none" xmlns="http://www.w3.org/2000/svg">
<rect x="0.147369" y="0.5" width="41" height="41" fill="#008F97"/>
<rect x="0.647385" y="43" width="41" height="41" fill="#F48922"/>
<rect x="43.1474" y="12" width="41" height="41" fill="#F48922"/>
<rect x="43.1474" y="54.5" width="41" height="41" fill="#008F97"/>
<path d="M12.6474 32.25C12.5307 32.25 12.4224 32.2 12.3224 32.1C12.2057 32 12.1474 31.8583 12.1474 31.675C12.1474 31.5417 12.189 31.375 12.2724 31.175C12.3557 30.975 12.5057 30.7583 12.7224 30.525C13.1057 29.675 13.464 28.9833 13.7974 28.45C14.1474 27.9167 14.539 27.3417 14.9724 26.725C14.7557 26.6917 14.5974 26.6167 14.4974 26.5C14.3974 26.3667 14.3474 26.2167 14.3474 26.05C14.3474 25.7833 14.4224 25.5333 14.5724 25.3C14.739 25.05 14.889 24.925 15.0224 24.925C15.2224 24.925 15.4307 24.9 15.6474 24.85C15.8807 24.8 16.114 24.775 16.3474 24.775C16.9474 23.9083 17.4307 23.1917 17.7974 22.625C18.1807 22.0583 18.489 21.6 18.7224 21.25C18.9557 20.9 19.1557 20.6083 19.3224 20.375C19.5057 20.1417 19.689 19.925 19.8724 19.725C20.0557 19.5083 20.2807 19.2583 20.5474 18.975C20.814 18.6917 21.164 18.3333 21.5974 17.9C21.3807 17.45 21.2724 17.0083 21.2724 16.575C21.2724 15.975 21.4474 15.4833 21.7974 15.1C22.1474 14.7167 22.514 14.525 22.8974 14.525C23.0974 14.525 23.2807 14.5833 23.4474 14.7C23.6307 14.8 23.7807 14.9833 23.8974 15.25C24.364 16.3167 24.689 17.675 24.8724 19.325C25.0724 20.975 25.2057 22.725 25.2724 24.575C26.5224 24.675 27.389 24.9 27.8724 25.25C27.6557 25.3167 27.3224 25.3917 26.8724 25.475C26.4224 25.5417 25.889 25.6167 25.2724 25.7C25.2724 26.3667 25.2807 27.0417 25.2974 27.725C25.314 28.4083 25.3224 29.0833 25.3224 29.75C25.3224 30.6833 25.2474 31.3333 25.0974 31.7C24.964 32.0667 24.8307 32.25 24.6974 32.25C24.514 32.25 24.4224 32.0833 24.4224 31.75C24.4224 30.6333 24.3724 29.5917 24.2724 28.625C24.1724 27.6417 24.0307 26.725 23.8474 25.875C23.0307 25.9583 22.164 26.05 21.2474 26.15C20.3474 26.2333 19.4474 26.3167 18.5474 26.4C17.6474 26.4833 16.814 26.5667 16.0474 26.65C15.514 27.4833 14.9807 28.3583 14.4474 29.275C13.9307 30.1917 13.4307 31.125 12.9474 32.075C12.8974 32.1917 12.7974 32.25 12.6474 32.25ZM17.3974 24.675C18.3807 24.5917 19.414 24.5417 20.4974 24.525C21.5807 24.4917 22.6057 24.475 23.5724 24.475C23.289 23.2917 22.9807 22.25 22.6474 21.35C22.3307 20.4333 22.0807 19.65 21.8974 19C21.464 19.4333 20.839 20.1417 20.0224 21.125C19.2224 22.1083 18.3474 23.2917 17.3974 24.675Z" fill="white"/>
<path d="M62.0474 78C61.7307 78 61.4724 77.9833 61.2724 77.95C61.089 77.9167 60.9474 77.8833 60.8474 77.85C60.564 77.75 60.4224 77.6666 60.4224 77.6C60.4224 77.45 61.2724 77.375 62.9724 77.375C63.889 77.375 64.764 77.225 65.5974 76.925C66.4307 76.625 67.189 76.2416 67.8724 75.775C68.5724 75.2916 69.164 74.7833 69.6474 74.25C70.1307 73.7 70.4724 73.1833 70.6724 72.7C70.789 72.4 70.8474 72.15 70.8474 71.95C70.8474 71.3833 70.5974 70.8833 70.0974 70.45C69.614 70 68.9557 69.6416 68.1224 69.375C67.289 69.1083 66.339 68.975 65.2724 68.975C64.3557 68.975 63.3724 69.1 62.3224 69.35C61.289 69.5833 60.2557 69.975 59.2224 70.525C59.1057 70.5916 58.9557 70.6416 58.7724 70.675C58.589 70.6916 58.3974 70.7 58.1974 70.7C57.9474 70.7 57.714 70.675 57.4974 70.625C57.2974 70.575 57.1974 70.5 57.1974 70.4C57.1974 70.2666 57.3557 70.1166 57.6724 69.95C58.789 69.35 59.9557 68.9166 61.1724 68.65C62.389 68.3833 63.5807 68.25 64.7474 68.25C65.8807 68.25 66.9557 68.3583 67.9724 68.575C68.989 68.7916 69.889 69.0916 70.6724 69.475C71.4557 69.8416 72.064 70.275 72.4974 70.775C72.9474 71.2583 73.1724 71.775 73.1724 72.325C73.1724 72.625 73.0974 72.925 72.9474 73.225C72.6474 73.8583 72.0974 74.475 71.2974 75.075C70.4974 75.6583 69.539 76.175 68.4224 76.625C67.3057 77.075 66.1224 77.425 64.8724 77.675C64.239 77.7916 63.689 77.875 63.2224 77.925C62.7724 77.975 62.3807 78 62.0474 78ZM57.0474 84.55C56.914 84.55 56.7557 84.4333 56.5724 84.2C56.389 83.9833 56.2307 83.55 56.0974 82.9C56.0807 82.8 56.064 82.7 56.0474 82.6C56.0474 82.4833 56.0474 82.3667 56.0474 82.25C56.0474 81.6833 56.1224 81.0167 56.2724 80.25C56.439 79.4667 56.6557 78.65 56.9224 77.8C57.189 76.9333 57.4807 76.0833 57.7974 75.25C58.114 74.4166 58.439 73.65 58.7724 72.95C59.1057 72.25 59.414 71.6833 59.6974 71.25C59.9307 70.8666 60.264 70.6083 60.6974 70.475C61.1474 70.325 61.5724 70.25 61.9724 70.25C62.3557 70.25 62.6724 70.3 62.9224 70.4C63.1724 70.5 63.239 70.6166 63.1224 70.75C62.5724 71.4333 62.0057 72.25 61.4224 73.2C60.839 74.1333 60.289 75.1333 59.7724 76.2C59.2557 77.25 58.7974 78.2917 58.3974 79.325C57.9974 80.3583 57.6974 81.3083 57.4974 82.175C57.2974 83.0417 57.2307 83.7583 57.2974 84.325C57.2974 84.475 57.214 84.55 57.0474 84.55Z" fill="white"/>
</svg>
